 http://www.imdb.com/title/tt1376195/

Release Date: 30 April 2010 (Canada)

Genre: Action | Comedy | Drama | Western

Plot: A hardened American gunslinger is repeatedly thwarted in his attempts to mount a showdown in a friendly town in Canada where no one seems to understand or appreciate the brutal code of the American Wild West.

Cast:
Sienna Guillory ... Jane Taylor
Dustin Milligan ... Corporal Jonathan Kent
Tyler Mane ... Jack Smith
Paul Gross ... Sean 'The Montana Kid' Rafferty
Callum Keith Rennie ... Ben Cutler
Graham Greene ... Two Dogs
Laura Bertram ... School Teacher
Michael Eklund ... Larry
Glynis Davies ... Beth
Alex Zahara ... Jon
Bronwen Smith ... Beatrice
Donavon Stinson ... Constable Hughes
Jody Racicot ... Paul
Teach Grant ... Ringo
Melody B. Choi ... Adell Kwon (as Melody Barbara-Jean Choi)
Shawn Campbell ... Carl
Aieisha Li ... Chinese Lady W / Glasses
Dean Hinchey ... 1890's Old West Dancer
Michael Warren Choi ... Chinese Railway Worker's Son
Raymond Yu ... Chinese TNT Guy #1
 
http://www.imagebam.com/image/63473a94696134

File Name

Gunless 2010 800p BRRip H264.mp4

File Size
Format : MPEG-4
Format profile : Base Media
Codec ID : isom
File size : 3.76 GiB
Duration : 1h 29mn
Overall bit rate : 6 039 Kbps

Video
ID : 1
Format : AVC
Format/Info : Advanced Video Codec
Format profile : High@L4.1
Format settings, CABAC : Yes
Format settings, ReFrames : 3 frames
Codec ID : avc1
Codec ID/Info : Advanced Video Coding
Duration : 1h 29mn
Bit rate mode : Variable
Bit rate : 5 399 Kbps
Maximum bit rate : 18.1 Mbps
Width : 1 920 pixels
Height : 800 pixels
Display aspect ratio : 2.40:1
Frame rate mode : Constant
Frame rate : 23.976 fps
Resolution : 24 bits
Colorimetry : 4:2:0
Scan type : Progressive
Bits/(Pixel*Frame) : 0.147
Stream size : 3.36 GiB (89%)

Audio #1
ID : 2
Format : AAC
Format/Info : Advanced Audio Codec
Format version : Version 4
Format profile : LC
Format settings, SBR : No
Codec ID : 40
Duration : 1h 29mn
Bit rate mode : Variable
Bit rate : 192 Kbps
Maximum bit rate : 198 Kbps
Channel(s) : 2 channels
Channel positions : L R
Sampling rate : 48.0 KHz
Resolution : 16 bits
Stream size : 122 MiB (3%)

Audio #2
ID : 3
Format : AAC
Format/Info : Advanced Audio Codec
Format version : Version 4
Format profile : LC
Format settings, SBR : No
Codec ID : 40
Duration : 1h 29mn
Bit rate mode : Variable
Bit rate : 448 Kbps
Maximum bit rate : 464 Kbps
Channel(s) : 6 channels
Channel positions : Front: L C R, Rear: L R, LFE
Sampling rate : 48.0 KHz
Resolution : 16 bits
Stream size : 285 MiB (7%)

English SRT : External

Language : English